<svg id="visual" viewBox="0 0 1080 80" width="1080" height="80" xmlns="http://www.w3.org/2000/svg" xmlns:xlink="http://www.w3.org/1999/xlink" version="1.1"><rect x="0" y="0" width="1080" height="80" fill="#16161c"></rect><path d="M0 68L18 65.7C36 63.3 72 58.7 108 54.8C144 51 180 48 216 50.8C252 53.7 288 62.3 324 67C360 71.7 396 72.3 432 68.8C468 65.3 504 57.7 540 54C576 50.3 612 50.7 648 51.3C684 52 720 53 756 54.5C792 56 828 58 864 58.5C900 59 936 58 972 54.8C1008 51.7 1044 46.3 1062 43.7L1080 41L1080 0L1062 0C1044 0 1008 0 972 0C936 0 900 0 864 0C828 0 792 0 756 0C720 0 684 0 648 0C612 0 576 0 540 0C504 0 468 0 432 0C396 0 360 0 324 0C288 0 252 0 216 0C180 0 144 0 108 0C72 0 36 0 18 0L0 0Z" fill="#4d79ff"></path><path d="M0 44L18 41.7C36 39.3 72 34.7 108 34.7C144 34.7 180 39.3 216 39.8C252 40.3 288 36.7 324 39.2C360 41.7 396 50.3 432 54.2C468 58 504 57 540 56.7C576 56.3 612 56.7 648 54.5C684 52.3 720 47.7 756 46.3C792 45 828 47 864 46.3C900 45.7 936 42.3 972 44.3C1008 46.3 1044 53.7 1062 57.3L1080 61L1080 0L1062 0C1044 0 1008 0 972 0C936 0 900 0 864 0C828 0 792 0 756 0C720 0 684 0 648 0C612 0 576 0 540 0C504 0 468 0 432 0C396 0 360 0 324 0C288 0 252 0 216 0C180 0 144 0 108 0C72 0 36 0 18 0L0 0Z" fill="#3476e7"></path><path d="M0 44L18 43.5C36 43 72 42 108 41.2C144 40.3 180 39.7 216 39C252 38.3 288 37.7 324 36.2C360 34.7 396 32.3 432 29.7C468 27 504 24 540 23.7C576 23.3 612 25.7 648 27.5C684 29.3 720 30.7 756 30.8C792 31 828 30 864 32.7C900 35.3 936 41.7 972 43.3C1008 45 1044 42 1062 40.5L1080 39L1080 0L1062 0C1044 0 1008 0 972 0C936 0 900 0 864 0C828 0 792 0 756 0C720 0 684 0 648 0C612 0 576 0 540 0C504 0 468 0 432 0C396 0 360 0 324 0C288 0 252 0 216 0C180 0 144 0 108 0C72 0 36 0 18 0L0 0Z" fill="#2772ce"></path><path d="M0 23L18 20.8C36 18.7 72 14.3 108 15.3C144 16.3 180 22.7 216 24.2C252 25.7 288 22.3 324 19.7C360 17 396 15 432 15.5C468 16 504 19 540 22.7C576 26.3 612 30.7 648 29C684 27.3 720 19.7 756 18C792 16.3 828 20.7 864 22.3C900 24 936 23 972 22C1008 21 1044 20 1062 19.5L1080 19L1080 0L1062 0C1044 0 1008 0 972 0C936 0 900 0 864 0C828 0 792 0 756 0C720 0 684 0 648 0C612 0 576 0 540 0C504 0 468 0 432 0C396 0 360 0 324 0C288 0 252 0 216 0C180 0 144 0 108 0C72 0 36 0 18 0L0 0Z" fill="#296db4"></path><path d="M0 16L18 14C36 12 72 8 108 8C144 8 180 12 216 12.5C252 13 288 10 324 8.7C360 7.3 396 7.7 432 10C468 12.3 504 16.7 540 19C576 21.3 612 21.7 648 20.5C684 19.3 720 16.7 756 14.7C792 12.7 828 11.3 864 9.8C900 8.3 936 6.7 972 7.8C1008 9 1044 13 1062 15L1080 17L1080 0L1062 0C1044 0 1008 0 972 0C936 0 900 0 864 0C828 0 792 0 756 0C720 0 684 0 648 0C612 0 576 0 540 0C504 0 468 0 432 0C396 0 360 0 324 0C288 0 252 0 216 0C180 0 144 0 108 0C72 0 36 0 18 0L0 0Z" fill="#336699"></path></svg>